<?xml version="1.0" encoding="UTF-8" standalone="no"?>
<!-- Created with Inkscape (http://www.inkscape.org/) -->
<svg
   xmlns:ns0="http://www.iki.fi/pav/software/textext/"
   xmlns:dc="http://purl.org/dc/elements/1.1/"
   xmlns:cc="http://creativecommons.org/ns#"
   xmlns:rdf="http://www.w3.org/1999/02/22-rdf-syntax-ns#"
   xmlns:svg="http://www.w3.org/2000/svg"
   xmlns="http://www.w3.org/2000/svg"
   xmlns:xlink="http://www.w3.org/1999/xlink"
   xmlns:sodipodi="http://sodipodi.sourceforge.net/DTD/sodipodi-0.dtd"
   xmlns:inkscape="http://www.inkscape.org/namespaces/inkscape"
   width="187.26154"
   height="107.35763"
   id="svg4288"
   sodipodi:version="0.32"
   inkscape:version="0.46"
   version="1.0"
   sodipodi:docname="zoh.svg"
   inkscape:output_extension="org.inkscape.output.svg.inkscape">
  <sodipodi:namedview
     id="base"
     pagecolor="#ffffff"
     bordercolor="#666666"
     borderopacity="1.0"
     inkscape:pageopacity="0.0"
     inkscape:pageshadow="2"
     inkscape:zoom="3.3327489"
     inkscape:cx="65.622979"
     inkscape:cy="48.083539"
     inkscape:document-units="px"
     inkscape:current-layer="layer1"
     showgrid="false"
     inkscape:window-width="1280"
     inkscape:window-height="725"
     inkscape:window-x="0"
     inkscape:window-y="25" />
  <defs
     id="defs4290">
    <marker
       inkscape:stockid="Arrow1Mend"
       orient="auto"
       refY="0.0"
       refX="0.0"
       id="Arrow1Mend"
       style="overflow:visible;">
      <path
         id="path3716"
         d="M 0.0,0.0 L 5.0,-5.0 L -12.5,0.0 L 5.0,5.0 L 0.0,0.0 z "
         style="fill-rule:evenodd;stroke:#000000;stroke-width:1.0pt;marker-start:none;"
         transform="scale(0.4) rotate(180) translate(10,0)" />
    </marker>
    <marker
       inkscape:stockid="Arrow1Lend"
       orient="auto"
       refY="0.0"
       refX="0.0"
       id="Arrow1Lend"
       style="overflow:visible;">
      <path
         id="path3710"
         d="M 0.0,0.0 L 5.0,-5.0 L -12.5,0.0 L 5.0,5.0 L 0.0,0.0 z "
         style="fill-rule:evenodd;stroke:#000000;stroke-width:1.0pt;marker-start:none;"
         transform="scale(0.8) rotate(180) translate(12.5,0)" />
    </marker>
    <inkscape:perspective
       sodipodi:type="inkscape:persp3d"
       inkscape:vp_x="0 : 167.5 : 1"
       inkscape:vp_y="0 : 1000 : 0"
       inkscape:vp_z="585 : 167.5 : 1"
       inkscape:persp3d-origin="292.5 : 111.66667 : 1"
       id="perspective2519" />
  </defs>
  <metadata
     id="metadata4293">
    <rdf:RDF>
      <cc:Work
         rdf:about="">
        <dc:format>image/svg+xml</dc:format>
        <dc:type
           rdf:resource="http://purl.org/dc/dcmitype/StillImage" />
      </cc:Work>
    </rdf:RDF>
  </metadata>
  <g
     inkscape:label="Ebene 1"
     inkscape:groupmode="layer"
     id="layer1"
     transform="translate(-95.876212,-162.45888)">
    <line
       style="fill:none;fill-opacity:0;stroke:#000000;stroke-width:0.5;marker-end:url(#Arrow1Mend)"
       x1="104.7116"
       y1="257.27502"
       x2="281.20514"
       y2="257.27502"
       id="line4241" />
    <line
       style="fill:none;fill-opacity:0;stroke:#000000;stroke-width:0.5;marker-end:url(#Arrow1Mend)"
       x1="116.65589"
       y1="269.2193"
       x2="116.65589"
       y2="164.39148"
       id="line4245" />
    <line
       style="fill:none;fill-opacity:0;stroke:#000000;stroke-width:0.5;stroke-dasharray:2.38885725"
       x1="128.60017"
       y1="257.27502"
       x2="128.60017"
       y2="173.66502"
       id="line4249" />
    <line
       style="fill:none;fill-opacity:0;stroke:#000000;stroke-width:0.5;stroke-dasharray:2.38885725"
       x1="140.54446"
       y1="257.27502"
       x2="140.54446"
       y2="173.66502"
       id="line4251" />
    <line
       style="fill:none;fill-opacity:0;stroke:#000000;stroke-width:0.5;stroke-dasharray:2.38885725"
       x1="152.48875"
       y1="257.27502"
       x2="152.48875"
       y2="173.66502"
       id="line4253" />
    <line
       style="fill:none;fill-opacity:0;stroke:#000000;stroke-width:0.5;stroke-dasharray:2.38885725"
       x1="164.43303"
       y1="257.27502"
       x2="164.43303"
       y2="173.66502"
       id="line4255" />
    <line
       style="fill:none;fill-opacity:0;stroke:#000000;stroke-width:0.5;stroke-dasharray:2.38885725"
       x1="176.37732"
       y1="257.27502"
       x2="176.37732"
       y2="173.66502"
       id="line4257" />
    <line
       style="fill:none;fill-opacity:0;stroke:#000000;stroke-width:0.5;stroke-dasharray:2.38885725"
       x1="188.32161"
       y1="257.27502"
       x2="188.32161"
       y2="173.66502"
       id="line4259" />
    <line
       style="fill:none;fill-opacity:0;stroke:#000000;stroke-width:0.5;stroke-dasharray:2.38885725"
       x1="200.2659"
       y1="257.27502"
       x2="200.2659"
       y2="173.66502"
       id="line4261" />
    <line
       style="fill:none;fill-opacity:0;stroke:#000000;stroke-width:0.5;stroke-dasharray:2.38885725"
       x1="212.21017"
       y1="257.27502"
       x2="212.21017"
       y2="173.66502"
       id="line4263" />
    <line
       style="fill:none;fill-opacity:0;stroke:#000000;stroke-width:0.5;stroke-dasharray:2.38885725"
       x1="224.15446"
       y1="257.27502"
       x2="224.15446"
       y2="173.66502"
       id="line4265" />
    <line
       style="fill:none;fill-opacity:0;stroke:#000000;stroke-width:0.5;stroke-dasharray:2.38885725"
       x1="236.09875"
       y1="257.27502"
       x2="236.09875"
       y2="173.66502"
       id="line4267" />
    <line
       style="fill:none;fill-opacity:0;stroke:#000000;stroke-width:0.5;stroke-dasharray:2.38885725"
       x1="248.04303"
       y1="257.27502"
       x2="248.04303"
       y2="173.66502"
       id="line4269" />
    <line
       style="fill:none;fill-opacity:0;stroke:#000000;stroke-width:0.5;stroke-dasharray:2.38885725"
       x1="259.98734"
       y1="257.27502"
       x2="259.98734"
       y2="173.66502"
       id="line4271" />
    <line
       style="fill:none;fill-opacity:0;stroke:#000000;stroke-width:0.5;stroke-dasharray:2.38885725"
       x1="271.93161"
       y1="257.27502"
       x2="271.93161"
       y2="173.66502"
       id="line4273" />
    <path
       style="fill:none;fill-opacity:0;stroke:#000080;stroke-width:1.19442856"
       d="M 116.65589,257.27502 C 120.22484,257.27502 128.60017,149.77644 152.48875,209.49787 C 176.37732,269.2193 188.32161,125.88787 212.21018,197.55359 C 236.09876,269.2193 248.04304,173.66501 271.93161,221.44216"
       id="path4277" />
    <polyline
       transform="matrix(11.944286,0,0,11.944286,104.71161,328.94073)"
       style="fill:none;fill-opacity:0;stroke:#ff0000;stroke-width:0.1"
       points="1.00625,-6 2,-6 2,-10.2513 3,-10.2513 3,-11.4888 4,-11.4888 4,-10.0263 5,-10.0263 5,-8.75133 6,-8.75133 6,-9.8 7,-9.8 7,-11.8295 8,-11.8295 8,-12.7045 9,-12.7045 9,-11.042 10,-11.042 10,-8.95 11.0027,-8.95 11.0027,-8.79821 12,-8.79821 12,-9.73125 13.0025,-9.73125 13.0025,-10.1438 14,-10.1438 14,-9 14,-9 "
       id="polyline4279" />
    <g
       ns0:text="$f_k(t)$"
       ns0:preamble="/home/diogo/.inkscape/extensions/preambulo_inkscape.tex"
       transform="translate(-127.58103,36.485855)"
       id="g2523">
      <defs
         id="defs2525">
        <g
           id="g2527">
          <symbol
             overflow="visible"
             id="textext-0cdd0e5f-0"
             style="overflow:visible">
            <path
               style="stroke:none"
               d=""
               id="path2530" />
          </symbol>
          <symbol
             overflow="visible"
             id="textext-0cdd0e5f-1"
             style="overflow:visible">
            <path
               style="stroke:none"
               d="M 3.046875,-0.796875 L 2.9375,-0.609375 C 2.8125,-0.390625 2.71875,-0.296875 2.609375,-0.296875 C 2.453125,-0.296875 2.296875,-0.546875 2.015625,-1.25 C 1.96875,-1.34375 1.859375,-1.609375 1.734375,-1.90625 C 2.828125,-2.875 3.046875,-3.015625 3.40625,-3.03125 L 3.40625,-3.15625 L 2.046875,-3.15625 L 2.046875,-3.03125 L 2.171875,-3.03125 C 2.359375,-3.03125 2.453125,-2.984375 2.453125,-2.90625 C 2.453125,-2.765625 2.09375,-2.390625 1.40625,-1.875 C 1.296875,-1.796875 1.203125,-1.71875 1.078125,-1.625 L 1.96875,-5 L 1.9375,-5.03125 C 1.5,-4.9375 1.21875,-4.890625 0.78125,-4.84375 L 0.78125,-4.71875 C 1.140625,-4.734375 1.28125,-4.671875 1.28125,-4.53125 C 1.265625,-4.40625 1.21875,-4.21875 1.125,-3.875 C 1.09375,-3.765625 1.0625,-3.6875 1.046875,-3.625 L 1.046875,-3.5625 L 0.109375,0 L 0.65625,0 L 1.015625,-1.328125 L 1.3125,-1.5625 C 1.4375,-1.234375 1.625,-0.796875 1.765625,-0.53125 C 2,-0.0625 2.125,0.078125 2.34375,0.078125 C 2.640625,0.078125 2.828125,-0.109375 3.15625,-0.71875 L 3.046875,-0.796875 z"
               id="path2533" />
          </symbol>
          <symbol
             overflow="visible"
             id="textext-0cdd0e5f-2"
             style="overflow:visible">
            <path
               style="stroke:none"
               d=""
               id="path2536" />
          </symbol>
          <symbol
             overflow="visible"
             id="textext-0cdd0e5f-3"
             style="overflow:visible">
            <path
               style="stroke:none"
               d="M 3.296875,2.390625 C 3.296875,2.359375 3.296875,2.34375 3.125,2.171875 C 1.890625,0.921875 1.5625,-0.96875 1.5625,-2.5 C 1.5625,-4.234375 1.9375,-5.96875 3.171875,-7.203125 C 3.296875,-7.328125 3.296875,-7.34375 3.296875,-7.375 C 3.296875,-7.453125 3.265625,-7.484375 3.203125,-7.484375 C 3.09375,-7.484375 2.203125,-6.796875 1.609375,-5.53125 C 1.109375,-4.4375 0.984375,-3.328125 0.984375,-2.5 C 0.984375,-1.71875 1.09375,-0.515625 1.640625,0.625 C 2.25,1.84375 3.09375,2.5 3.203125,2.5 C 3.265625,2.5 3.296875,2.46875 3.296875,2.390625 z"
               id="path2539" />
          </symbol>
          <symbol
             overflow="visible"
             id="textext-0cdd0e5f-4"
             style="overflow:visible">
            <path
               style="stroke:none"
               d="M 2.875,-2.5 C 2.875,-3.265625 2.765625,-4.46875 2.21875,-5.609375 C 1.625,-6.828125 0.765625,-7.484375 0.671875,-7.484375 C 0.609375,-7.484375 0.5625,-7.4375 0.5625,-7.375 C 0.5625,-7.34375 0.5625,-7.328125 0.75,-7.140625 C 1.734375,-6.15625 2.296875,-4.578125 2.296875,-2.5 C 2.296875,-0.78125 1.9375,0.96875 0.703125,2.21875 C 0.5625,2.34375 0.5625,2.359375 0.5625,2.390625 C 0.5625,2.453125 0.609375,2.5 0.671875,2.5 C 0.765625,2.5 1.671875,1.8125 2.25,0.546875 C 2.765625,-0.546875 2.875,-1.65625 2.875,-2.5 z"
               id="path2542" />
          </symbol>
          <symbol
             overflow="visible"
             id="textext-0cdd0e5f-5"
             style="overflow:visible">
            <path
               style="stroke:none"
               d=""
               id="path2545" />
          </symbol>
          <symbol
             overflow="visible"
             id="textext-0cdd0e5f-6"
             style="overflow:visible">
            <path
               style="stroke:none"
               d="M 0.34375,-3.953125 L 1.25,-3.953125 L 0.375,0.234375 C 0.15625,1.3125 -0.171875,1.859375 -0.59375,1.859375 C -0.71875,1.859375 -0.796875,1.78125 -0.796875,1.6875 C -0.796875,1.671875 -0.78125,1.640625 -0.75,1.578125 C -0.71875,1.53125 -0.703125,1.484375 -0.703125,1.421875 C -0.703125,1.21875 -0.890625,1.046875 -1.09375,1.046875 C -1.3125,1.046875 -1.46875,1.21875 -1.46875,1.453125 C -1.46875,1.796875 -1.109375,2.0625 -0.671875,2.0625 C 0.203125,2.0625 0.90625,1.078125 1.3125,-0.75 L 2.03125,-3.953125 L 3.125,-3.953125 L 3.1875,-4.265625 L 2.109375,-4.265625 C 2.390625,-5.828125 2.765625,-6.546875 3.3125,-6.546875 C 3.453125,-6.546875 3.53125,-6.484375 3.53125,-6.421875 C 3.53125,-6.390625 3.53125,-6.375 3.5,-6.3125 C 3.453125,-6.234375 3.4375,-6.1875 3.4375,-6.109375 C 3.4375,-5.875 3.59375,-5.71875 3.8125,-5.71875 C 4.03125,-5.71875 4.234375,-5.890625 4.234375,-6.109375 C 4.234375,-6.484375 3.859375,-6.765625 3.375,-6.765625 C 2.875,-6.765625 2.5,-6.546875 2.140625,-6.078125 C 1.828125,-5.6875 1.640625,-5.21875 1.328125,-4.265625 L 0.421875,-4.265625 L 0.34375,-3.953125 z"
               id="path2548" />
          </symbol>
          <symbol
             overflow="visible"
             id="textext-0cdd0e5f-7"
             style="overflow:visible">
            <path
               style="stroke:none"
               d="M 2.953125,-4.265625 L 2.15625,-4.265625 L 2.4375,-5.296875 C 2.4375,-5.3125 2.4375,-5.328125 2.4375,-5.34375 C 2.4375,-5.40625 2.40625,-5.4375 2.359375,-5.4375 C 2.296875,-5.4375 2.265625,-5.4375 2.21875,-5.359375 C 1.828125,-4.84375 1.203125,-4.34375 0.890625,-4.25 C 0.640625,-4.171875 0.5625,-4.109375 0.5625,-4 C 0.5625,-4 0.5625,-3.984375 0.578125,-3.953125 L 1.3125,-3.953125 L 0.59375,-1.203125 C 0.578125,-1.109375 0.5625,-1.09375 0.53125,-1 C 0.453125,-0.703125 0.375,-0.34375 0.375,-0.265625 C 0.375,-0.046875 0.578125,0.109375 0.84375,0.109375 C 1.3125,0.109375 1.640625,-0.171875 2.265625,-1.09375 L 2.140625,-1.171875 C 1.640625,-0.53125 1.484375,-0.375 1.328125,-0.375 C 1.234375,-0.375 1.171875,-0.453125 1.171875,-0.578125 C 1.171875,-0.59375 1.171875,-0.59375 1.1875,-0.625 L 2.0625,-3.953125 L 2.90625,-3.953125 L 2.953125,-4.265625 z"
               id="path2551" />
          </symbol>
        </g>
      </defs>
      <g
         id="textext-0cdd0e5f-8">
        <g
           style="fill:#000000;fill-opacity:1"
           id="g2554">
          <use
             xlink:href="#textext-0cdd0e5f-6"
             x="224.92599"
             y="134.765"
             id="use2556"
             width="187.26154"
             height="107.35763" />
        </g>
        <g
           style="fill:#000000;fill-opacity:1"
           id="g2558">
          <use
             xlink:href="#textext-0cdd0e5f-1"
             x="227.94501"
             y="136.35001"
             id="use2560"
             width="187.26154"
             height="107.35763" />
        </g>
        <g
           style="fill:#000000;fill-opacity:1"
           id="g2562">
          <use
             xlink:href="#textext-0cdd0e5f-3"
             x="231.842"
             y="134.765"
             id="use2564"
             width="187.26154"
             height="107.35763" />
        </g>
        <g
           style="fill:#000000;fill-opacity:1"
           id="g2566">
          <use
             xlink:href="#textext-0cdd0e5f-7"
             x="235.45799"
             y="134.765"
             id="use2568"
             width="187.26154"
             height="107.35763" />
        </g>
        <g
           style="fill:#000000;fill-opacity:1"
           id="g2570">
          <use
             xlink:href="#textext-0cdd0e5f-4"
             x="238.905"
             y="134.765"
             id="use2572"
             width="187.26154"
             height="107.35763" />
        </g>
      </g>
    </g>
    <g
       id="g2696"
       transform="translate(55.694016,132.15196)"
       ns0:preamble="/home/diogo/.inkscape/extensions/preambulo_inkscape.tex"
       ns0:text="$t$">
      <defs
         id="defs2698">
        <g
           id="g2700">
          <symbol
             id="textext-3afe61fd-0"
             overflow="visible"
             style="overflow:visible">
            <path
               id="path2703"
               d=""
               style="stroke:none" />
          </symbol>
          <symbol
             id="textext-3afe61fd-1"
             overflow="visible"
             style="overflow:visible">
            <path
               id="path2706"
               d="M 2.953125,-4.265625 L 2.15625,-4.265625 L 2.4375,-5.296875 C 2.4375,-5.3125 2.4375,-5.328125 2.4375,-5.34375 C 2.4375,-5.40625 2.40625,-5.4375 2.359375,-5.4375 C 2.296875,-5.4375 2.265625,-5.4375 2.21875,-5.359375 C 1.828125,-4.84375 1.203125,-4.34375 0.890625,-4.25 C 0.640625,-4.171875 0.5625,-4.109375 0.5625,-4 C 0.5625,-4 0.5625,-3.984375 0.578125,-3.953125 L 1.3125,-3.953125 L 0.59375,-1.203125 C 0.578125,-1.109375 0.5625,-1.09375 0.53125,-1 C 0.453125,-0.703125 0.375,-0.34375 0.375,-0.265625 C 0.375,-0.046875 0.578125,0.109375 0.84375,0.109375 C 1.3125,0.109375 1.640625,-0.171875 2.265625,-1.09375 L 2.140625,-1.171875 C 1.640625,-0.53125 1.484375,-0.375 1.328125,-0.375 C 1.234375,-0.375 1.171875,-0.453125 1.171875,-0.578125 C 1.171875,-0.59375 1.171875,-0.59375 1.1875,-0.625 L 2.0625,-3.953125 L 2.90625,-3.953125 L 2.953125,-4.265625 z"
               style="stroke:none" />
          </symbol>
        </g>
      </defs>
      <g
         id="textext-3afe61fd-2">
        <g
           id="g2709"
           style="fill:#000000;fill-opacity:1">
          <use
             id="use2711"
             y="134.765"
             x="223.183"
             xlink:href="#textext-3afe61fd-1"
             width="187.26154"
             height="107.35763" />
        </g>
      </g>
    </g>
  </g>
</svg>
