<?xml version="1.0" encoding="UTF-8" standalone="no"?>
<!-- Created with Inkscape (http://www.inkscape.org/) -->
<svg
   xmlns:dc="http://purl.org/dc/elements/1.1/"
   xmlns:cc="http://creativecommons.org/ns#"
   xmlns:rdf="http://www.w3.org/1999/02/22-rdf-syntax-ns#"
   xmlns:svg="http://www.w3.org/2000/svg"
   xmlns="http://www.w3.org/2000/svg"
   xmlns:sodipodi="http://sodipodi.sourceforge.net/DTD/sodipodi-0.dtd"
   xmlns:inkscape="http://www.inkscape.org/namespaces/inkscape"
   width="533.39783"
   height="343.82327"
   id="svg2594"
   sodipodi:version="0.32"
   inkscape:version="0.46"
   version="1.0"
   sodipodi:docname="nyquist.svg"
   inkscape:output_extension="org.inkscape.output.svg.inkscape">
  <defs
     id="defs2596">
    <inkscape:perspective
       sodipodi:type="inkscape:persp3d"
       inkscape:vp_x="0 : 526.18109 : 1"
       inkscape:vp_y="0 : 1000 : 0"
       inkscape:vp_z="744.09448 : 526.18109 : 1"
       inkscape:persp3d-origin="372.04724 : 350.78739 : 1"
       id="perspective2602" />
  </defs>
  <sodipodi:namedview
     id="base"
     pagecolor="#ffffff"
     bordercolor="#666666"
     borderopacity="1.0"
     inkscape:pageopacity="0.0"
     inkscape:pageshadow="2"
     inkscape:zoom="0.73584318"
     inkscape:cx="258.43525"
     inkscape:cy="267.89753"
     inkscape:document-units="px"
     inkscape:current-layer="layer1"
     showgrid="false"
     inkscape:window-width="1280"
     inkscape:window-height="725"
     inkscape:window-x="0"
     inkscape:window-y="25" />
  <metadata
     id="metadata2599">
    <rdf:RDF>
      <cc:Work
         rdf:about="">
        <dc:format>image/svg+xml</dc:format>
        <dc:type
           rdf:resource="http://purl.org/dc/dcmitype/StillImage" />
      </cc:Work>
    </rdf:RDF>
  </metadata>
  <g
     inkscape:label="Camada 1"
     inkscape:groupmode="layer"
     id="layer1"
     transform="translate(-58.570213,-288.50117)">
    <g
       id="g3485"
       style="stroke:#999999">
      <path
         id="path3417"
         d="M 325.26912,289.00117 L 325.26912,631.82443"
         style="opacity:1;fill:none;fill-opacity:1;stroke:#999999;stroke-width:1;stroke-linecap:butt;stroke-miterlimit:4;stroke-dasharray:3, 3;stroke-dashoffset:0;stroke-opacity:1" />
      <path
         id="path3429"
         d="M 413.91001,289.00117 L 413.91001,631.82443"
         style="opacity:1;fill:none;fill-opacity:1;stroke:#999999;stroke-width:1;stroke-linecap:butt;stroke-miterlimit:4;stroke-dasharray:3, 3;stroke-dashoffset:0;stroke-opacity:1" />
      <path
         id="path3431"
         d="M 502.80343,289.00117 L 502.80343,631.82443"
         style="opacity:1;fill:none;fill-opacity:1;stroke:#999999;stroke-width:1;stroke-linecap:butt;stroke-miterlimit:4;stroke-dasharray:3, 3;stroke-dashoffset:0;stroke-opacity:1" />
      <path
         id="path3433"
         d="M 236.63778,289.00117 L 236.63778,631.82443"
         style="opacity:1;fill:none;fill-opacity:1;stroke:#999999;stroke-width:1;stroke-linecap:butt;stroke-miterlimit:4;stroke-dasharray:3, 3;stroke-dashoffset:0;stroke-opacity:1" />
      <path
         id="path3435"
         d="M 147.56127,289.00117 L 147.56127,631.82443"
         style="opacity:1;fill:none;fill-opacity:1;stroke:#999999;stroke-width:1;stroke-linecap:butt;stroke-miterlimit:4;stroke-dasharray:3, 3;stroke-dashoffset:0;stroke-opacity:1" />
      <path
         id="path3415"
         d="M 59.070217,460.41282 L 591.46801,460.41282"
         style="fill:none;fill-opacity:1;stroke:#999999;stroke-width:1;stroke-linecap:butt;stroke-miterlimit:4;stroke-dasharray:3, 3;stroke-dashoffset:0;stroke-opacity:1" />
      <path
         id="path3457"
         d="M 59.070214,330.05564 L 591.46801,330.05564"
         style="fill:none;fill-opacity:1;stroke:#999999;stroke-width:1;stroke-linecap:butt;stroke-miterlimit:4;stroke-dasharray:3, 3;stroke-dashoffset:0;stroke-opacity:1" />
      <path
         id="path3459"
         d="M 59.070217,373.50803 L 591.46801,373.50803"
         style="fill:none;fill-opacity:1;stroke:#999999;stroke-width:1;stroke-linecap:butt;stroke-miterlimit:4;stroke-dasharray:3, 3;stroke-dashoffset:0;stroke-opacity:1" />
      <path
         id="path3461"
         d="M 59.070218,416.96042 L 591.46801,416.96042"
         style="fill:none;fill-opacity:1;stroke:#999999;stroke-width:1;stroke-linecap:butt;stroke-miterlimit:4;stroke-dasharray:3, 3;stroke-dashoffset:0;stroke-opacity:1" />
      <path
         id="path3463"
         d="M 59.070213,503.86521 L 591.46801,503.86521"
         style="fill:none;fill-opacity:1;stroke:#999999;stroke-width:1;stroke-linecap:butt;stroke-miterlimit:4;stroke-dasharray:3, 3;stroke-dashoffset:0;stroke-opacity:1" />
      <path
         id="path3465"
         d="M 59.070218,547.31757 L 591.46801,547.31757"
         style="fill:none;fill-opacity:1;stroke:#999999;stroke-width:1;stroke-linecap:butt;stroke-miterlimit:4;stroke-dasharray:3, 3;stroke-dashoffset:0;stroke-opacity:1" />
      <path
         id="path3467"
         d="M 59.07022,590.76996 L 591.46801,590.76996"
         style="fill:none;fill-opacity:1;stroke:#999999;stroke-width:1;stroke-linecap:butt;stroke-miterlimit:4;stroke-dasharray:3, 3;stroke-dashoffset:0;stroke-opacity:1" />
    </g>
    <g
       style="fill:none;stroke:#0000ff;stroke-width:1;stroke-linecap:butt;stroke-linejoin:miter"
       id="g118"
       transform="translate(16.969114,230.1128)">
      <path
         d="M 42.2,301.5 L 44,301.4 L 45.8,301 L 47.5,300.3 L 49.3,299.3 L 51.1,298 L 52.9,296.5 L 54.7,294.7 L 56.4,292.7 L 58.2,290.4 L 60,287.8 L 61.8,285.1 L 63.6,282.1 L 65.3,278.9 L 67.1,275.5 L 68.9,272 L 70.7,268.3 L 72.5,264.4 L 74.2,260.4 L 76,256.3 L 77.8,252 L 79.6,247.7 L 81.4,243.3 L 83.1,238.9 L 84.9,234.4 L 86.7,229.9 L 88.5,225.4 L 90.3,221 L 92,216.5 L 93.8,212.2 L 95.6,207.9 L 97.4,203.6 L 99.2,199.5 L 100.9,195.6 L 102.7,191.7 L 104.5,188 L 106.3,184.5 L 108.1,181.1 L 109.8,178 L 111.6,175 L 113.4,172.3 L 115.2,169.8 L 117,167.6 L 118.7,165.6 L 120.5,163.8 L 122.3,162.3 L 124.1,161.1 L 125.9,160.2 L 127.6,159.5 L 129.4,159.2 L 131.2,159.1 L 133,159.3 L 134.8,159.7 L 136.5,160.5 L 138.3,161.5 L 140.1,162.8 L 141.9,164.4 L 143.7,166.2 L 145.4,168.3 L 147.2,170.6 L 149,173.2 L 150.8,176 L 152.6,179 L 154.3,182.2 L 156.1,185.6 L 157.9,189.2 L 159.7,193 L 161.5,196.9 L 163.2,200.9 L 165,205 L 166.8,209.3 L 168.6,213.6 L 170.4,218 L 172.1,222.5 L 173.9,226.9 L 175.7,231.4 L 177.5,235.9 L 179.3,240.4 L 181,244.8 L 182.8,249.2 L 184.6,253.4 L 186.4,257.6 L 188.2,261.7 L 189.9,265.7 L 191.7,269.5 L 193.5,273.2 L 195.3,276.7 L 197.1,280 L 198.8,283.1 L 200.6,286 L 202.4,288.7 L 204.2,291.2 L 206,293.4 L 207.7,295.3 L 209.5,297 L 211.3,298.5 L 213.1,299.6 L 214.9,300.5 L 216.6,301.1 L 218.4,301.5 L 220.2,301.5 L 222,301.3 L 223.8,300.8 L 225.5,300 L 227.3,298.9 L 229.1,297.5 L 230.9,295.9 L 232.7,294.1 L 234.4,291.9 L 236.2,289.6 L 238,286.9 L 239.8,284.1 L 241.6,281.1 L 243.3,277.8 L 245.1,274.4 L 246.9,270.8 L 248.7,267 L 250.5,263.1 L 252.2,259 L 254,254.9 L 255.8,250.6 L 257.6,246.3 L 259.4,241.8 L 261.1,237.4 L 262.9,232.9 L 264.7,228.4 L 266.5,223.9 L 268.3,219.5 L 270,215.1 L 271.8,210.7 L 273.6,206.4 L 275.4,202.3 L 277.2,198.2 L 278.9,194.3 L 280.7,190.5 L 282.5,186.8 L 284.3,183.3 L 286.1,180.1 L 287.8,177 L 289.6,174.1 L 291.4,171.5 L 293.2,169.1 L 295,166.9 L 296.7,165 L 298.5,163.3 L 300.3,161.9 L 302.1,160.8 L 303.9,159.9 L 305.6,159.4 L 307.4,159.1 L 309.2,159.1 L 311,159.4 L 312.7,159.9 L 314.5,160.8 L 316.3,161.9 L 318.1,163.3 L 319.9,165 L 321.6,166.9 L 323.4,169.1 L 325.2,171.5 L 327,174.1 L 328.8,177 L 330.5,180.1 L 332.3,183.3 L 334.1,186.8 L 335.9,190.5 L 337.7,194.3 L 339.4,198.2 L 341.2,202.3 L 343,206.4 L 344.8,210.7 L 346.6,215.1 L 348.3,219.5 L 350.1,223.9 L 351.9,228.4 L 353.7,232.9 L 355.5,237.4 L 357.2,241.8 L 359,246.3 L 360.8,250.6 L 362.6,254.9 L 364.4,259 L 366.1,263.1 L 367.9,267 L 369.7,270.8 L 371.5,274.4 L 373.3,277.8 L 375,281.1 L 376.8,284.1 L 378.6,286.9 L 380.4,289.6 L 382.2,291.9 L 383.9,294.1 L 385.7,295.9 L 387.5,297.5 L 389.3,298.9 L 391.1,300 L 392.8,300.8 L 394.6,301.3 L 396.4,301.5 L 398.2,301.5 L 400,301.1 L 401.7,300.5 L 403.5,299.6 L 405.3,298.5 L 407.1,297 L 408.9,295.3 L 410.6,293.4 L 412.4,291.2 L 414.2,288.7 L 416,286 L 417.8,283.1 L 419.5,280 L 421.3,276.7 L 423.1,273.2 L 424.9,269.5 L 426.7,265.7 L 428.4,261.7 L 430.2,257.6 L 432,253.4 L 433.8,249.2 L 435.6,244.8 L 437.3,240.4 L 439.1,235.9 L 440.9,231.4 L 442.7,226.9 L 444.5,222.5 L 446.2,218 L 448,213.6 L 449.8,209.3 L 451.6,205 L 453.4,200.9 L 455.1,196.9 L 456.9,193 L 458.7,189.2 L 460.5,185.6 L 462.3,182.2 L 464,179 L 465.8,176 L 467.6,173.2 L 469.4,170.6 L 471.2,168.3 L 472.9,166.2 L 474.7,164.4 L 476.5,162.8 L 478.3,161.5 L 480.1,160.5 L 481.8,159.7 L 483.6,159.3 L 485.4,159.1 L 487.2,159.2 L 489,159.5 L 490.7,160.2 L 492.5,161.1 L 494.3,162.3 L 496.1,163.8 L 497.9,165.6 L 499.6,167.6 L 501.4,169.8 L 503.2,172.3 L 505,175 L 506.8,178 L 508.5,181.1 L 510.3,184.5 L 512.1,188 L 513.9,191.7 L 515.7,195.6 L 517.4,199.5 L 519.2,203.6 L 521,207.9 L 522.8,212.2 L 524.6,216.5 L 526.3,221 L 528.1,225.4 L 529.9,229.9 L 531.7,234.4 L 533.5,238.9 L 535.2,243.3 L 537,247.7 L 538.8,252 L 540.6,256.3 L 542.4,260.4 L 544.1,264.4 L 545.9,268.3 L 547.7,272 L 549.5,275.5 L 551.3,278.9 L 553,282.1 L 554.8,285.1 L 556.6,287.8 L 558.4,290.4 L 560.2,292.7 L 561.9,294.7 L 563.7,296.5 L 565.5,298 L 567.3,299.3 L 569.1,300.3 L 570.8,301 L 572.6,301.4 L 574.4,301.5"
         id="path120"
         style="stroke:#0000ff" />
    </g>
    <g
       style="fill:none;stroke:#008000;stroke-width:1;stroke-linecap:butt;stroke-linejoin:miter"
       id="g122"
       transform="translate(16.969114,230.1128)">
      <path
         d="M 42.2,301.5 L 44,294.4 L 45.8,287 L 47.5,279.4 L 49.3,271.6 L 51.1,263.6 L 52.9,255.5 L 54.7,247.3 L 56.4,239.1 L 58.2,230.8 L 60,222.4 L 61.8,214.2 L 63.6,206 L 65.3,197.8 L 67.1,189.9 L 68.9,182 L 70.7,174.4 L 72.5,167 L 74.2,159.8 L 76,152.9 L 77.8,146.4 L 79.6,140.1 L 81.4,134.3 L 83.1,128.8 L 84.9,123.7 L 86.7,119 L 88.5,114.8 L 90.3,111 L 92,107.7 L 93.8,104.9 L 95.6,102.6 L 97.4,100.8 L 99.2,99.5 L 100.9,98.7 L 102.7,98.5 L 104.5,98.7 L 106.3,99.5 L 108.1,100.9 L 109.8,102.7 L 111.6,105 L 113.4,107.9 L 115.2,111.2 L 117,115 L 118.7,119.2 L 120.5,123.9 L 122.3,129.1 L 124.1,134.6 L 125.9,140.5 L 127.6,146.7 L 129.4,153.3 L 131.2,160.2 L 133,167.4 L 134.8,174.8 L 136.5,182.5 L 138.3,190.3 L 140.1,198.3 L 141.9,206.4 L 143.7,214.6 L 145.4,222.9 L 147.2,231.2 L 149,239.5 L 150.8,247.8 L 152.6,256 L 154.3,264.1 L 156.1,272.1 L 157.9,279.9 L 159.7,287.5 L 161.5,294.8 L 163.2,301.9 L 165,308.8 L 166.8,315.3 L 168.6,321.5 L 170.4,327.3 L 172.1,332.7 L 173.9,337.7 L 175.7,342.3 L 177.5,346.5 L 179.3,350.2 L 181,353.4 L 182.8,356.1 L 184.6,358.4 L 186.4,360.1 L 188.2,361.3 L 189.9,362 L 191.7,362.1 L 193.5,361.8 L 195.3,360.9 L 197.1,359.5 L 198.8,357.6 L 200.6,355.1 L 202.4,352.2 L 204.2,348.8 L 206,344.9 L 207.7,340.6 L 209.5,335.8 L 211.3,330.6 L 213.1,325.1 L 214.9,319.1 L 216.6,312.8 L 218.4,306.1 L 220.2,299.2 L 222,292 L 223.8,284.5 L 225.5,276.8 L 227.3,269 L 229.1,260.9 L 230.9,252.8 L 232.7,244.6 L 234.4,236.3 L 236.2,228 L 238,219.7 L 239.8,211.4 L 241.6,203.2 L 243.3,195.2 L 245.1,187.2 L 246.9,179.5 L 248.7,171.9 L 250.5,164.6 L 252.2,157.5 L 254,150.7 L 255.8,144.3 L 257.6,138.1 L 259.4,132.4 L 261.1,127 L 262.9,122.1 L 264.7,117.5 L 266.5,113.4 L 268.3,109.8 L 270,106.7 L 271.8,104.1 L 273.6,101.9 L 275.4,100.3 L 277.2,99.2 L 278.9,98.6 L 280.7,98.5 L 282.5,98.9 L 284.3,99.9 L 286.1,101.4 L 287.8,103.4 L 289.6,105.9 L 291.4,108.9 L 293.2,112.4 L 295,116.4 L 296.7,120.8 L 298.5,125.6 L 300.3,130.9 L 302.1,136.5 L 303.9,142.5 L 305.6,148.9 L 307.4,155.6 L 309.2,162.6 L 311,169.9 L 312.7,177.4 L 314.5,185.1 L 316.3,193 L 318.1,201 L 319.9,209.2 L 321.6,217.4 L 323.4,225.7 L 325.2,234 L 327,242.3 L 328.8,250.5 L 330.5,258.7 L 332.3,266.8 L 334.1,274.7 L 335.9,282.4 L 337.7,289.9 L 339.4,297.2 L 341.2,304.2 L 343,311 L 344.8,317.4 L 346.6,323.5 L 348.3,329.1 L 350.1,334.4 L 351.9,339.3 L 353.7,343.8 L 355.5,347.8 L 357.2,351.3 L 359,354.4 L 360.8,356.9 L 362.6,359 L 364.4,360.5 L 366.1,361.6 L 367.9,362.1 L 369.7,362.1 L 371.5,361.5 L 373.3,360.5 L 375,358.9 L 376.8,356.8 L 378.6,354.2 L 380.4,351.1 L 382.2,347.6 L 383.9,343.5 L 385.7,339.1 L 387.5,334.1 L 389.3,328.8 L 391.1,323.1 L 392.8,317 L 394.6,310.6 L 396.4,303.8 L 398.2,296.8 L 400,289.5 L 401.7,282 L 403.5,274.2 L 405.3,266.3 L 407.1,258.2 L 408.9,250.1 L 410.6,241.8 L 412.4,233.5 L 414.2,225.2 L 416,216.9 L 417.8,208.7 L 419.5,200.5 L 421.3,192.5 L 423.1,184.6 L 424.9,176.9 L 426.7,169.4 L 428.4,162.2 L 430.2,155.2 L 432,148.5 L 433.8,142.2 L 435.6,136.2 L 437.3,130.5 L 439.1,125.3 L 440.9,120.5 L 442.7,116.1 L 444.5,112.2 L 446.2,108.7 L 448,105.8 L 449.8,103.3 L 451.6,101.3 L 453.4,99.8 L 455.1,98.9 L 456.9,98.5 L 458.7,98.6 L 460.5,99.2 L 462.3,100.4 L 464,102 L 465.8,104.2 L 467.6,106.9 L 469.4,110 L 471.2,113.7 L 472.9,117.8 L 474.7,122.3 L 476.5,127.3 L 478.3,132.7 L 480.1,138.5 L 481.8,144.6 L 483.6,151.1 L 485.4,157.9 L 487.2,165 L 489,172.3 L 490.7,179.9 L 492.5,187.7 L 494.3,195.6 L 496.1,203.7 L 497.9,211.9 L 499.6,220.2 L 501.4,228.5 L 503.2,236.8 L 505,245.1 L 506.8,253.3 L 508.5,261.4 L 510.3,269.4 L 512.1,277.3 L 513.9,284.9 L 515.7,292.4 L 517.4,299.6 L 519.2,306.5 L 521,313.2 L 522.8,319.4 L 524.6,325.4 L 526.3,331 L 528.1,336.1 L 529.9,340.9 L 531.7,345.2 L 533.5,349 L 535.2,352.4 L 537,355.3 L 538.8,357.7 L 540.6,359.6 L 542.4,360.9 L 544.1,361.8 L 545.9,362.1 L 547.7,361.9 L 549.5,361.2 L 551.3,360 L 553,358.3 L 554.8,356 L 556.6,353.2 L 558.4,350 L 560.2,346.3 L 561.9,342.1 L 563.7,337.5 L 565.5,332.4 L 567.3,327 L 569.1,321.1 L 570.8,314.9 L 572.6,308.4 L 574.4,301.5"
         id="path124"
         style="stroke:#008000" />
    </g>
    <g
       style="fill:none;stroke:#d40000;stroke-width:1;stroke-linecap:butt;stroke-linejoin:miter"
       id="g126"
       transform="translate(16.969114,230.1128)">
      <path
         d="M 42.2,301.5 L 44,311.2 L 45.8,320.5 L 47.5,329.5 L 49.3,338.1 L 51.1,346.3 L 52.9,354 L 54.7,361.2 L 56.4,367.9 L 58.2,374 L 60,379.6 L 61.8,384.6 L 63.6,388.9 L 65.3,392.7 L 67.1,395.8 L 68.9,398.2 L 70.7,400 L 72.5,401.1 L 74.2,401.5 L 76,401.2 L 77.8,400.3 L 79.6,398.6 L 81.4,396.3 L 83.1,393.4 L 84.9,389.8 L 86.7,385.6 L 88.5,380.7 L 90.3,375.3 L 92,369.3 L 93.8,362.7 L 95.6,355.6 L 97.4,348 L 99.2,339.9 L 100.9,331.4 L 102.7,322.5 L 104.5,313.3 L 106.3,303.7 L 108.1,293.8 L 109.8,283.6 L 111.6,273.3 L 113.4,262.7 L 115.2,252.1 L 117,241.4 L 118.7,230.6 L 120.5,219.8 L 122.3,209 L 124.1,198.4 L 125.9,187.9 L 127.6,177.5 L 129.4,167.3 L 131.2,157.4 L 133,147.8 L 134.8,138.5 L 136.5,129.6 L 138.3,121.1 L 140.1,113 L 141.9,105.4 L 143.7,98.3 L 145.4,91.7 L 147.2,85.6 L 149,80.1 L 150.8,75.3 L 152.6,71 L 154.3,67.4 L 156.1,64.4 L 157.9,62.1 L 159.7,60.4 L 161.5,59.4 L 163.2,59.1 L 165,59.5 L 166.8,60.6 L 168.6,62.3 L 170.4,64.7 L 172.1,67.8 L 173.9,71.5 L 175.7,75.8 L 177.5,80.7 L 179.3,86.3 L 181,92.4 L 182.8,99.1 L 184.6,106.2 L 186.4,113.9 L 188.2,122.1 L 189.9,130.6 L 191.7,139.6 L 193.5,148.9 L 195.3,158.6 L 197.1,168.5 L 198.8,178.7 L 200.6,189.1 L 202.4,199.6 L 204.2,210.3 L 206,221 L 207.7,231.8 L 209.5,242.6 L 211.3,253.3 L 213.1,264 L 214.9,274.5 L 216.6,284.8 L 218.4,294.9 L 220.2,304.8 L 222,314.3 L 223.8,323.6 L 225.5,332.4 L 227.3,340.9 L 229.1,348.9 L 230.9,356.4 L 232.7,363.5 L 234.4,370 L 236.2,375.9 L 238,381.3 L 239.8,386.1 L 241.6,390.3 L 243.3,393.8 L 245.1,396.6 L 246.9,398.9 L 248.7,400.4 L 250.5,401.3 L 252.2,401.5 L 254,401 L 255.8,399.8 L 257.6,397.9 L 259.4,395.4 L 261.1,392.3 L 262.9,388.5 L 264.7,384 L 266.5,379 L 268.3,373.3 L 270,367.1 L 271.8,360.4 L 273.6,353.1 L 275.4,345.3 L 277.2,337.1 L 278.9,328.5 L 280.7,319.5 L 282.5,310.1 L 284.3,300.4 L 286.1,290.4 L 287.8,280.2 L 289.6,269.8 L 291.4,259.2 L 293.2,248.5 L 295,237.8 L 296.7,227 L 298.5,216.2 L 300.3,205.5 L 302.1,194.9 L 303.9,184.4 L 305.6,174.1 L 307.4,164 L 309.2,154.2 L 311,144.7 L 312.7,135.5 L 314.5,126.7 L 316.3,118.3 L 318.1,110.4 L 319.9,103 L 321.6,96 L 323.4,89.6 L 325.2,83.7 L 327,78.4 L 328.8,73.8 L 330.5,69.7 L 332.3,66.3 L 334.1,63.5 L 335.9,61.4 L 337.7,60 L 339.4,59.3 L 341.2,59.2 L 343,59.8 L 344.8,61.1 L 346.6,63 L 348.3,65.6 L 350.1,68.9 L 351.9,72.8 L 353.7,77.4 L 355.5,82.5 L 357.2,88.3 L 359,94.6 L 360.8,101.4 L 362.6,108.8 L 364.4,116.6 L 366.1,124.9 L 367.9,133.6 L 369.7,142.7 L 371.5,152.1 L 373.3,161.9 L 375,171.9 L 376.8,182.1 L 378.6,192.6 L 380.4,203.2 L 382.2,213.9 L 383.9,224.6 L 385.7,235.4 L 387.5,246.2 L 389.3,256.9 L 391.1,267.5 L 392.8,278 L 394.6,288.2 L 396.4,298.2 L 398.2,308 L 400,317.5 L 401.7,326.6 L 403.5,335.3 L 405.3,343.6 L 407.1,351.5 L 408.9,358.8 L 410.6,365.7 L 412.4,372 L 414.2,377.8 L 416,383 L 417.8,387.6 L 419.5,391.5 L 421.3,394.8 L 423.1,397.5 L 424.9,399.4 L 426.7,400.8 L 428.4,401.4 L 430.2,401.4 L 432,400.6 L 433.8,399.3 L 435.6,397.2 L 437.3,394.5 L 439.1,391.1 L 440.9,387.1 L 442.7,382.4 L 444.5,377.2 L 446.2,371.3 L 448,364.9 L 449.8,358 L 451.6,350.6 L 453.4,342.7 L 455.1,334.3 L 456.9,325.5 L 458.7,316.4 L 460.5,306.9 L 462.3,297.1 L 464,287 L 465.8,276.7 L 467.6,266.3 L 469.4,255.7 L 471.2,244.9 L 472.9,234.2 L 474.7,223.4 L 476.5,212.6 L 478.3,201.9 L 480.1,191.3 L 481.8,180.9 L 483.6,170.7 L 485.4,160.7 L 487.2,151 L 489,141.6 L 490.7,132.5 L 492.5,123.9 L 494.3,115.7 L 496.1,107.9 L 497.9,100.6 L 499.6,93.8 L 501.4,87.6 L 503.2,81.9 L 505,76.8 L 506.8,72.3 L 508.5,68.5 L 510.3,65.3 L 512.1,62.8 L 513.9,60.9 L 515.7,59.7 L 517.4,59.2 L 519.2,59.3 L 521,60.1 L 522.8,61.6 L 524.6,63.8 L 526.3,66.7 L 528.1,70.2 L 529.9,74.3 L 531.7,79 L 533.5,84.4 L 535.2,90.3 L 537,96.8 L 538.8,103.8 L 540.6,111.3 L 542.4,119.3 L 544.1,127.7 L 545.9,136.6 L 547.7,145.8 L 549.5,155.3 L 551.3,165.2 L 553,175.3 L 554.8,185.6 L 556.6,196.1 L 558.4,206.7 L 560.2,217.5 L 561.9,228.2 L 563.7,239 L 565.5,249.8 L 567.3,260.4 L 569.1,271 L 570.8,281.4 L 572.6,291.6 L 574.4,301.5"
         id="path128"
         style="stroke:#d40000" />
    </g>
    <rect
       style="opacity:1;fill:none;fill-opacity:1;stroke:#000000;stroke-width:0.89899474;stroke-linecap:butt;stroke-miterlimit:4;stroke-dasharray:none;stroke-dashoffset:0;stroke-opacity:1"
       id="rect2643"
       width="532.30103"
       height="342.50101"
       x="59.118603"
       y="289.16229" />
    <path
       sodipodi:type="arc"
       style="opacity:1;fill:#000000;fill-opacity:1;stroke:#000000;stroke-width:1;stroke-linecap:butt;stroke-miterlimit:4;stroke-dasharray:none;stroke-dashoffset:0;stroke-opacity:1"
       id="path3419"
       sodipodi:cx="148.57143"
       sodipodi:cy="390.93362"
       sodipodi:rx="3.5714285"
       sodipodi:ry="3.5714285"
       d="M 152.14285,390.93362 A 3.5714285,3.5714285 0 1 1 145,390.93362 A 3.5714285,3.5714285 0 1 1 152.14285,390.93362 z"
       transform="translate(-1.0101525,-1.2626907)" />
    <path
       sodipodi:type="arc"
       style="opacity:1;fill:#000000;fill-opacity:1;stroke:#000000;stroke-width:1;stroke-linecap:butt;stroke-miterlimit:4;stroke-dasharray:none;stroke-dashoffset:0;stroke-opacity:1"
       id="path3421"
       sodipodi:cx="148.57143"
       sodipodi:cy="390.93362"
       sodipodi:rx="3.5714285"
       sodipodi:ry="3.5714285"
       d="M 152.14285,390.93362 A 3.5714285,3.5714285 0 1 1 145,390.93362 A 3.5714285,3.5714285 0 1 1 152.14285,390.93362 z"
       transform="translate(176.69769,-1.2626907)" />
    <path
       sodipodi:type="arc"
       style="opacity:1;fill:#000000;fill-opacity:1;stroke:#000000;stroke-width:1;stroke-linecap:butt;stroke-miterlimit:4;stroke-dasharray:none;stroke-dashoffset:0;stroke-opacity:1"
       id="path3423"
       sodipodi:cx="148.57143"
       sodipodi:cy="390.93362"
       sodipodi:rx="3.5714285"
       sodipodi:ry="3.5714285"
       d="M 152.14285,390.93362 A 3.5714285,3.5714285 0 1 1 145,390.93362 A 3.5714285,3.5714285 0 1 1 152.14285,390.93362 z"
       transform="translate(88.066355,140.59172)" />
    <path
       sodipodi:type="arc"
       style="opacity:1;fill:#000000;fill-opacity:1;stroke:#000000;stroke-width:1;stroke-linecap:butt;stroke-miterlimit:4;stroke-dasharray:none;stroke-dashoffset:0;stroke-opacity:1"
       id="path3425"
       sodipodi:cx="148.57143"
       sodipodi:cy="390.93362"
       sodipodi:rx="3.5714285"
       sodipodi:ry="3.5714285"
       d="M 152.14285,390.93362 A 3.5714285,3.5714285 0 1 1 145,390.93362 A 3.5714285,3.5714285 0 1 1 152.14285,390.93362 z"
       transform="translate(265.33858,140.59172)" />
    <path
       sodipodi:type="arc"
       style="opacity:1;fill:#000000;fill-opacity:1;stroke:#000000;stroke-width:1;stroke-linecap:butt;stroke-miterlimit:4;stroke-dasharray:none;stroke-dashoffset:0;stroke-opacity:1"
       id="path3427"
       sodipodi:cx="148.57143"
       sodipodi:cy="390.93362"
       sodipodi:rx="3.5714285"
       sodipodi:ry="3.5714285"
       d="M 152.14285,390.93362 A 3.5714285,3.5714285 0 1 1 145,390.93362 A 3.5714285,3.5714285 0 1 1 152.14285,390.93362 z"
       transform="translate(354.232,-1.2626907)" />
  </g>
</svg>
