<?xml version="1.0" encoding="UTF-8" standalone="no"?>
<!-- Created with Inkscape (http://www.inkscape.org/) -->
<svg
   xmlns:ns0="http://www.iki.fi/pav/software/textext/"
   xmlns:dc="http://purl.org/dc/elements/1.1/"
   xmlns:cc="http://creativecommons.org/ns#"
   xmlns:rdf="http://www.w3.org/1999/02/22-rdf-syntax-ns#"
   xmlns:svg="http://www.w3.org/2000/svg"
   xmlns="http://www.w3.org/2000/svg"
   xmlns:xlink="http://www.w3.org/1999/xlink"
   xmlns:sodipodi="http://sodipodi.sourceforge.net/DTD/sodipodi-0.dtd"
   xmlns:inkscape="http://www.inkscape.org/namespaces/inkscape"
   width="187.26154"
   height="107.35763"
   id="svg4288"
   sodipodi:version="0.32"
   inkscape:version="0.46"
   version="1.0"
   sodipodi:docname="zoh.svg"
   inkscape:output_extension="org.inkscape.output.svg.inkscape">
  <sodipodi:namedview
     id="base"
     pagecolor="#ffffff"
     bordercolor="#666666"
     borderopacity="1.0"
     inkscape:pageopacity="0.0"
     inkscape:pageshadow="2"
     inkscape:zoom="3.3327489"
     inkscape:cx="103.72966"
     inkscape:cy="48.083539"
     inkscape:document-units="px"
     inkscape:current-layer="layer1"
     showgrid="false"
     inkscape:window-width="1280"
     inkscape:window-height="725"
     inkscape:window-x="0"
     inkscape:window-y="25" />
  <defs
     id="defs4290">
    <marker
       inkscape:stockid="Arrow1Mend"
       orient="auto"
       refY="0.0"
       refX="0.0"
       id="Arrow1Mend"
       style="overflow:visible;">
      <path
         id="path3716"
         d="M 0.0,0.0 L 5.0,-5.0 L -12.5,0.0 L 5.0,5.0 L 0.0,0.0 z "
         style="fill-rule:evenodd;stroke:#000000;stroke-width:1.0pt;marker-start:none;"
         transform="scale(0.4) rotate(180) translate(10,0)" />
    </marker>
    <marker
       inkscape:stockid="Arrow1Lend"
       orient="auto"
       refY="0.0"
       refX="0.0"
       id="Arrow1Lend"
       style="overflow:visible;">
      <path
         id="path3710"
         d="M 0.0,0.0 L 5.0,-5.0 L -12.5,0.0 L 5.0,5.0 L 0.0,0.0 z "
         style="fill-rule:evenodd;stroke:#000000;stroke-width:1.0pt;marker-start:none;"
         transform="scale(0.8) rotate(180) translate(12.5,0)" />
    </marker>
    <inkscape:perspective
       sodipodi:type="inkscape:persp3d"
       inkscape:vp_x="0 : 167.5 : 1"
       inkscape:vp_y="0 : 1000 : 0"
       inkscape:vp_z="585 : 167.5 : 1"
       inkscape:persp3d-origin="292.5 : 111.66667 : 1"
       id="perspective2519" />
  </defs>
  <metadata
     id="metadata4293">
    <rdf:RDF>
      <cc:Work
         rdf:about="">
        <dc:format>image/svg+xml</dc:format>
        <dc:type
           rdf:resource="http://purl.org/dc/dcmitype/StillImage" />
      </cc:Work>
    </rdf:RDF>
  </metadata>
  <g
     inkscape:label="Ebene 1"
     inkscape:groupmode="layer"
     id="layer1"
     transform="translate(-95.876212,-162.45888)">
    <g
       id="g5526">
      <line
         id="line4241"
         y2="257.27502"
         x2="281.20514"
         y1="257.27502"
         x1="104.7116"
         style="fill:none;fill-opacity:0;stroke:#000000;stroke-width:0.50000000000000000;marker-end:url(#Arrow1Mend)" />
      <line
         id="line4245"
         y2="164.39148"
         x2="116.65589"
         y1="269.2193"
         x1="116.65589"
         style="fill:none;fill-opacity:0;stroke:#000000;stroke-width:0.50000000000000000;marker-end:url(#Arrow1Mend)" />
      <line
         id="line4249"
         y2="173.66502"
         x2="128.60017"
         y1="257.27502"
         x1="128.60017"
         style="fill:none;fill-opacity:0;stroke:#000000;stroke-width:0.5;stroke-dasharray:2.38885725000000004" />
      <line
         id="line4251"
         y2="173.66502"
         x2="140.54446"
         y1="257.27502"
         x1="140.54446"
         style="fill:none;fill-opacity:0;stroke:#000000;stroke-width:0.5;stroke-dasharray:2.38885725000000004" />
      <line
         id="line4253"
         y2="173.66502"
         x2="152.48875"
         y1="257.27502"
         x1="152.48875"
         style="fill:none;fill-opacity:0;stroke:#000000;stroke-width:0.5;stroke-dasharray:2.38885725000000004" />
      <line
         id="line4255"
         y2="173.66502"
         x2="164.43303"
         y1="257.27502"
         x1="164.43303"
         style="fill:none;fill-opacity:0;stroke:#000000;stroke-width:0.5;stroke-dasharray:2.38885725000000004" />
      <line
         id="line4257"
         y2="173.66502"
         x2="176.37732"
         y1="257.27502"
         x1="176.37732"
         style="fill:none;fill-opacity:0;stroke:#000000;stroke-width:0.5;stroke-dasharray:2.38885725000000004" />
      <line
         id="line4259"
         y2="173.66502"
         x2="188.32161"
         y1="257.27502"
         x1="188.32161"
         style="fill:none;fill-opacity:0;stroke:#000000;stroke-width:0.5;stroke-dasharray:2.38885725000000004" />
      <line
         id="line4261"
         y2="173.66502"
         x2="200.2659"
         y1="257.27502"
         x1="200.2659"
         style="fill:none;fill-opacity:0;stroke:#000000;stroke-width:0.5;stroke-dasharray:2.38885725000000004" />
      <line
         id="line4263"
         y2="173.66502"
         x2="212.21017"
         y1="257.27502"
         x1="212.21017"
         style="fill:none;fill-opacity:0;stroke:#000000;stroke-width:0.5;stroke-dasharray:2.38885725000000004" />
      <line
         id="line4265"
         y2="173.66502"
         x2="224.15446"
         y1="257.27502"
         x1="224.15446"
         style="fill:none;fill-opacity:0;stroke:#000000;stroke-width:0.5;stroke-dasharray:2.38885725000000004" />
      <line
         id="line4267"
         y2="173.66502"
         x2="236.09875"
         y1="257.27502"
         x1="236.09875"
         style="fill:none;fill-opacity:0;stroke:#000000;stroke-width:0.5;stroke-dasharray:2.38885725000000004" />
      <line
         id="line4269"
         y2="173.66502"
         x2="248.04303"
         y1="257.27502"
         x1="248.04303"
         style="fill:none;fill-opacity:0;stroke:#000000;stroke-width:0.5;stroke-dasharray:2.38885725000000004" />
      <line
         id="line4271"
         y2="173.66502"
         x2="259.98734"
         y1="257.27502"
         x1="259.98734"
         style="fill:none;fill-opacity:0;stroke:#000000;stroke-width:0.5;stroke-dasharray:2.38885725000000004" />
      <line
         id="line4273"
         y2="173.66502"
         x2="271.93161"
         y1="257.27502"
         x1="271.93161"
         style="fill:none;fill-opacity:0;stroke:#000000;stroke-width:0.5;stroke-dasharray:2.38885725000000004" />
      <path
         id="path4277"
         d="M 116.65589,257.27502 C 120.22484,257.27502 128.60017,149.77644 152.48875,209.49787 C 176.37732,269.2193 188.32161,125.88787 212.21018,197.55359 C 236.09876,269.2193 248.04304,173.66501 271.93161,221.44216"
         style="fill:none;fill-opacity:0;stroke:#000080;stroke-width:1.19442856" />
      <polyline
         id="polyline4279"
         points="1.00625,-6 2,-6 2,-10.2513 3,-10.2513 3,-11.4888 4,-11.4888 4,-10.0263 5,-10.0263 5,-8.75133 6,-8.75133 6,-9.8 7,-9.8 7,-11.8295 8,-11.8295 8,-12.7045 9,-12.7045 9,-11.042 10,-11.042 10,-8.95 11.0027,-8.95 11.0027,-8.79821 12,-8.79821 12,-9.73125 13.0025,-9.73125 13.0025,-10.1438 14,-10.1438 14,-9 14,-9 "
         style="fill:none;fill-opacity:0;stroke:#ff0000;stroke-width:0.1"
         transform="matrix(11.944286,0,0,11.944286,104.71161,328.94073)" />
      <g
         id="g2567"
         ns0:preamble="/home/diogo/.inkscape/extensions/preambulo_inkscape.tex"
         ns0:text="f(t)"
         transform="translate(-127.75892,34.506384)">
        <defs
           id="defs2569">
          <g
             id="g2571">
            <symbol
               id="textext-80818509-0"
               overflow="visible"
               style="overflow:visible">
              <path
                 id="path2574"
                 d=""
                 style="stroke:none" />
            </symbol>
            <symbol
               id="textext-80818509-1"
               overflow="visible"
               style="overflow:visible">
              <path
                 id="path2577"
                 d="M 3.078125,-4.484375 L 1.859375,-4.484375 L 1.859375,-5.640625 C 1.859375,-6.21875 2.046875,-6.53125 2.421875,-6.53125 C 2.625,-6.53125 2.765625,-6.4375 2.953125,-6.140625 C 3.109375,-5.875 3.234375,-5.78125 3.40625,-5.78125 C 3.625,-5.78125 3.8125,-5.96875 3.8125,-6.1875 C 3.8125,-6.546875 3.375,-6.8125 2.78125,-6.8125 C 2.15625,-6.8125 1.640625,-6.546875 1.375,-6.078125 C 1.109375,-5.640625 1.03125,-5.28125 1.03125,-4.484375 L 0.203125,-4.484375 L 0.203125,-4.171875 L 1.03125,-4.171875 L 1.03125,-1.03125 C 1.03125,-0.3125 0.921875,-0.1875 0.203125,-0.15625 L 0.203125,0 L 2.796875,0 L 2.796875,-0.15625 C 1.96875,-0.171875 1.859375,-0.296875 1.859375,-1.03125 L 1.859375,-4.171875 L 3.078125,-4.171875 L 3.078125,-4.484375 z"
                 style="stroke:none" />
            </symbol>
            <symbol
               id="textext-80818509-2"
               overflow="visible"
               style="overflow:visible">
              <path
                 id="path2580"
                 d="M 2.9375,-6.734375 C 2.203125,-6.265625 1.90625,-6 1.53125,-5.546875 C 0.828125,-4.671875 0.484375,-3.671875 0.484375,-2.515625 C 0.484375,-1.25 0.84375,-0.265625 1.71875,0.75 C 2.140625,1.21875 2.390625,1.453125 2.90625,1.765625 L 3.03125,1.609375 C 2.234375,0.984375 1.953125,0.625 1.6875,-0.125 C 1.453125,-0.78125 1.328125,-1.546875 1.328125,-2.546875 C 1.328125,-3.59375 1.46875,-4.40625 1.734375,-5.03125 C 2.015625,-5.640625 2.3125,-6 3.03125,-6.578125 L 2.9375,-6.734375 z"
                 style="stroke:none" />
            </symbol>
            <symbol
               id="textext-80818509-3"
               overflow="visible"
               style="overflow:visible">
              <path
                 id="path2583"
                 d="M 2.546875,-4.484375 L 1.53125,-4.484375 L 1.53125,-5.640625 C 1.53125,-5.734375 1.53125,-5.765625 1.46875,-5.765625 C 1.390625,-5.6875 1.328125,-5.59375 1.265625,-5.5 C 0.890625,-4.9375 0.453125,-4.46875 0.296875,-4.421875 C 0.1875,-4.359375 0.125,-4.28125 0.125,-4.234375 C 0.125,-4.203125 0.140625,-4.1875 0.171875,-4.171875 L 0.703125,-4.171875 L 0.703125,-1.171875 C 0.703125,-0.328125 1,0.09375 1.578125,0.09375 C 2.078125,0.09375 2.453125,-0.140625 2.78125,-0.65625 L 2.65625,-0.765625 C 2.4375,-0.515625 2.265625,-0.421875 2.046875,-0.421875 C 1.6875,-0.421875 1.53125,-0.6875 1.53125,-1.3125 L 1.53125,-4.171875 L 2.546875,-4.171875 L 2.546875,-4.484375 z"
                 style="stroke:none" />
            </symbol>
            <symbol
               id="textext-80818509-4"
               overflow="visible"
               style="overflow:visible">
              <path
                 id="path2586"
                 d="M 0.375,1.765625 C 1.109375,1.28125 1.421875,1.03125 1.78125,0.5625 C 2.5,-0.296875 2.84375,-1.296875 2.84375,-2.46875 C 2.84375,-3.734375 2.46875,-4.703125 1.59375,-5.71875 C 1.1875,-6.203125 0.921875,-6.421875 0.40625,-6.734375 L 0.296875,-6.578125 C 1.09375,-5.953125 1.359375,-5.609375 1.640625,-4.859375 C 1.875,-4.1875 1.984375,-3.421875 1.984375,-2.4375 C 1.984375,-1.390625 1.859375,-0.5625 1.578125,0.046875 C 1.3125,0.671875 1,1.03125 0.296875,1.609375 L 0.375,1.765625 z"
                 style="stroke:none" />
            </symbol>
          </g>
        </defs>
        <g
           id="textext-80818509-5">
          <g
             id="g2589"
             style="fill:#000000;fill-opacity:1">
            <use
               id="use2591"
               y="134.765"
               x="223.43201"
               xlink:href="#textext-80818509-1"
               width="585"
               height="335" />
            <use
               id="use2593"
               y="134.765"
               x="226.74954"
               xlink:href="#textext-80818509-2"
               width="585"
               height="335" />
            <use
               id="use2595"
               y="134.765"
               x="230.06709"
               xlink:href="#textext-80818509-3"
               width="585"
               height="335" />
            <use
               id="use2597"
               y="134.765"
               x="232.8367"
               xlink:href="#textext-80818509-4"
               width="585"
               height="335" />
          </g>
        </g>
      </g>
      <g
         ns0:text="t"
         ns0:preamble="/home/diogo/.inkscape/extensions/preambulo_inkscape.tex"
         transform="translate(56.924487,133.95228)"
         id="g2745">
        <defs
           id="defs2747">
          <g
             id="g2749">
            <symbol
               style="overflow:visible"
               overflow="visible"
               id="textext-71a2c969-0">
              <path
                 style="stroke:none"
                 d=""
                 id="path2752" />
            </symbol>
            <symbol
               style="overflow:visible"
               overflow="visible"
               id="textext-71a2c969-1">
              <path
                 style="stroke:none"
                 d="M 2.546875,-4.484375 L 1.53125,-4.484375 L 1.53125,-5.640625 C 1.53125,-5.734375 1.53125,-5.765625 1.46875,-5.765625 C 1.390625,-5.6875 1.328125,-5.59375 1.265625,-5.5 C 0.890625,-4.9375 0.453125,-4.46875 0.296875,-4.421875 C 0.1875,-4.359375 0.125,-4.28125 0.125,-4.234375 C 0.125,-4.203125 0.140625,-4.1875 0.171875,-4.171875 L 0.703125,-4.171875 L 0.703125,-1.171875 C 0.703125,-0.328125 1,0.09375 1.578125,0.09375 C 2.078125,0.09375 2.453125,-0.140625 2.78125,-0.65625 L 2.65625,-0.765625 C 2.4375,-0.515625 2.265625,-0.421875 2.046875,-0.421875 C 1.6875,-0.421875 1.53125,-0.6875 1.53125,-1.3125 L 1.53125,-4.171875 L 2.546875,-4.171875 L 2.546875,-4.484375 z"
                 id="path2755" />
            </symbol>
          </g>
        </defs>
        <g
           id="textext-71a2c969-2">
          <g
             style="fill:#000000;fill-opacity:1"
             id="g2758">
            <use
               height="335"
               width="585"
               xlink:href="#textext-71a2c969-1"
               x="223.43201"
               y="134.765"
               id="use2760" />
          </g>
        </g>
      </g>
    </g>
  </g>
</svg>
