<?xml version="1.0" encoding="UTF-8" standalone="no"?>
<!-- Created with Inkscape (http://www.inkscape.org/) -->
<svg
   xmlns:dc="http://purl.org/dc/elements/1.1/"
   xmlns:cc="http://creativecommons.org/ns#"
   xmlns:rdf="http://www.w3.org/1999/02/22-rdf-syntax-ns#"
   xmlns:svg="http://www.w3.org/2000/svg"
   xmlns="http://www.w3.org/2000/svg"
   xmlns:xlink="http://www.w3.org/1999/xlink"
   xmlns:sodipodi="http://sodipodi.sourceforge.net/DTD/sodipodi-0.dtd"
   xmlns:inkscape="http://www.inkscape.org/namespaces/inkscape"
   version="1.0"
   width="835.11847"
   height="567.09064"
   id="svg2"
   sodipodi:version="0.32"
   inkscape:version="0.46"
   sodipodi:docname="livro.svg"
   inkscape:output_extension="org.inkscape.output.svg.inkscape">
  <metadata
     id="metadata2531">
    <rdf:RDF>
      <cc:Work
         rdf:about="">
        <dc:format>image/svg+xml</dc:format>
        <dc:type
           rdf:resource="http://purl.org/dc/dcmitype/StillImage" />
      </cc:Work>
    </rdf:RDF>
  </metadata>
  <sodipodi:namedview
     inkscape:window-height="713"
     inkscape:window-width="711"
     inkscape:pageshadow="2"
     inkscape:pageopacity="0.0"
     guidetolerance="10.0"
     gridtolerance="10.0"
     objecttolerance="10.0"
     borderopacity="1.0"
     bordercolor="#666666"
     pagecolor="#ffffff"
     id="base"
     showgrid="false"
     inkscape:zoom="0.45722574"
     inkscape:cx="469.30403"
     inkscape:cy="285.19052"
     inkscape:window-x="0"
     inkscape:window-y="25"
     inkscape:current-layer="svg2" />
  <defs
     id="defs4">
    <inkscape:perspective
       sodipodi:type="inkscape:persp3d"
       inkscape:vp_x="0 : 283.54532 : 1"
       inkscape:vp_y="0 : 1000 : 0"
       inkscape:vp_z="835.11847 : 283.54532 : 1"
       inkscape:persp3d-origin="417.55923 : 189.03021 : 1"
       id="perspective2533" />
    <linearGradient
       id="linearGradient3314">
      <stop
         id="stop3316"
         style="stop-color: rgb(220, 220, 220); stop-opacity: 1;"
         offset="0" />
      <stop
         id="stop3322"
         style="stop-color: rgb(232, 232, 232); stop-opacity: 1;"
         offset="0.0729612" />
      <stop
         id="stop3324"
         style="stop-color: rgb(226, 226, 226); stop-opacity: 1;"
         offset="0.39346588" />
      <stop
         id="stop3326"
         style="stop-color: rgb(188, 188, 188); stop-opacity: 1;"
         offset="0.50066584" />
      <stop
         id="stop3330"
         style="stop-color: rgb(222, 222, 222); stop-opacity: 1;"
         offset="0.6425212" />
      <stop
         id="stop3328"
         style="stop-color: rgb(221, 221, 221); stop-opacity: 1;"
         offset="0.94838297" />
      <stop
         id="stop3318"
         style="stop-color: rgb(220, 220, 220); stop-opacity: 1;"
         offset="1" />
    </linearGradient>
    <linearGradient
       id="linearGradient3298">
      <stop
         id="stop3300"
         style="stop-color: rgb(145, 145, 145); stop-opacity: 1;"
         offset="0" />
      <stop
         id="stop3302"
         style="stop-color: rgb(145, 145, 145); stop-opacity: 1;"
         offset="0.30858582" />
      <stop
         id="stop3304"
         style="stop-color: rgb(92, 92, 92); stop-opacity: 1;"
         offset="0.51132685" />
      <stop
         id="stop3306"
         style="stop-color: rgb(145, 145, 145); stop-opacity: 1;"
         offset="0.69885707" />
      <stop
         id="stop3308"
         style="stop-color: rgb(145, 145, 145); stop-opacity: 1;"
         offset="1" />
    </linearGradient>
    <linearGradient
       id="linearGradient3270">
      <stop
         id="stop3272"
         style="stop-color: rgb(146, 146, 149); stop-opacity: 1;"
         offset="0" />
      <stop
         id="stop3274"
         style="stop-color: rgb(185, 185, 185); stop-opacity: 1;"
         offset="1" />
    </linearGradient>
    <linearGradient
       id="linearGradient3246">
      <stop
         id="stop3248"
         style="stop-color: rgb(0, 125, 18); stop-opacity: 1;"
         offset="0" />
      <stop
         id="stop3254"
         style="stop-color: rgb(0, 125, 18); stop-opacity: 1;"
         offset="0.46926689" />
      <stop
         id="stop3256"
         style="stop-color: rgb(94, 124, 98); stop-opacity: 1;"
         offset="0.51132685" />
      <stop
         id="stop3258"
         style="stop-color: rgb(0, 125, 18); stop-opacity: 1;"
         offset="0.5669955" />
      <stop
         id="stop3250"
         style="stop-color: rgb(0, 125, 18); stop-opacity: 1;"
         offset="1" />
    </linearGradient>
    <linearGradient
       x1="153.0388"
       y1="463.29184"
       x2="849.7998"
       y2="299.70178"
       id="linearGradient3252"
       xlink:href="#linearGradient3246"
       gradientUnits="userSpaceOnUse" />
    <linearGradient
       x1="171.59496"
       y1="425.34058"
       x2="241.64479"
       y2="418.82431"
       id="linearGradient3276"
       xlink:href="#linearGradient3270"
       gradientUnits="userSpaceOnUse" />
    <linearGradient
       x1="830.32367"
       y1="269.49326"
       x2="755.3006"
       y2="294.47226"
       id="linearGradient3286"
       xlink:href="#linearGradient3270"
       gradientUnits="userSpaceOnUse" />
    <linearGradient
       x1="197.66"
       y1="600.70026"
       x2="896.48633"
       y2="450.36261"
       id="linearGradient3296"
       xlink:href="#linearGradient3298"
       gradientUnits="userSpaceOnUse" />
    <linearGradient
       x1="233.33572"
       y1="396.72012"
       x2="780.50598"
       y2="265.29617"
       id="linearGradient3320"
       xlink:href="#linearGradient3314"
       gradientUnits="userSpaceOnUse" />
    <filter
       id="filter3587">
      <feGaussianBlur
         id="feGaussianBlur3589"
         stdDeviation="9.2928517"
         inkscape:collect="always" />
    </filter>
    <filter
       id="filter3631">
      <feGaussianBlur
         id="feGaussianBlur3633"
         stdDeviation="14.191705"
         inkscape:collect="always" />
    </filter>
  </defs>
  <g
     transform="translate(-112.854, -83.8994)"
     id="layer1"
     style="display: inline;" />
  <path
     style="opacity:0.279221;fill:#000000;fill-opacity:1;fill-rule:evenodd;stroke:#000000;stroke-width:1px;stroke-linecap:butt;stroke-linejoin:miter;stroke-opacity:1;display:inline;filter:url(#filter3631)"
     id="path3591"
     d="M 36.77041,169.56076 L 91.08474,552.47683 L 401.58169,486.39439 L 401.58169,490.01534 L 418.78123,486.39439 C 452.4939,474.49026 483.1274,468.74475 512.0208,466.47913 L 526.5047,462.85818 L 526.5047,458.33198 L 815.27585,392.24954 L 693.97385,42.82731 L 36.77041,169.56076 z" />
  <path
     style="fill:#4d4d4d;fill-opacity:1;fill-rule:evenodd;stroke:#000000;stroke-width:1px;stroke-linecap:butt;stroke-linejoin:miter;stroke-opacity:1"
     id="path2474"
     d="M 17.50041,151.4508 L 71.81474,534.36687 L 382.31169,468.28443 L 382.31169,471.90538 L 399.51123,468.28443 C 433.22395,456.3803 463.85737,450.63479 492.75084,448.36917 L 507.23467,444.74822 L 507.23467,440.22202 L 796.00589,374.13958 L 674.70387,24.71735 L 17.50041,151.4508 z" />
  <path
     style="fill:#dddddd;fill-opacity:1;fill-rule:evenodd;stroke:none;stroke-width:1px;stroke-linecap:butt;stroke-linejoin:miter;stroke-opacity:1"
     id="path3260"
     d="M 27.16441,152.36712 L 79.41009,526.44615 L 392.88414,459.57169 L 399.42535,461.54666 C 426.24584,452.4299 453.80488,443.58394 495.78711,440.02648 L 506.77971,433.44885 L 785.77162,368.66421 L 667.69639,30.11223 L 27.16441,152.36712 z" />
  <path
     style="fill:#a97f7f;fill-opacity:1;fill-rule:evenodd;stroke:#9f5a5a;stroke-width:1.10000002;stroke-linecap:round;stroke-linejoin:miter;stroke-miterlimit:4;stroke-dasharray:none;stroke-opacity:1"
     id="path3262"
     d="M 495.5835,438.1631 C 468.27422,438.67986 436.43194,444.89036 397.92725,459.38185 C 396.65872,459.85647 396.01513,461.26957 396.48975,462.5381 C 396.96437,463.80663 398.37747,464.45022 399.646,463.9756 C 437.74965,449.63504 469.03919,443.57341 495.67725,443.06935 C 497.03207,443.04346 498.10939,441.92417 498.0835,440.56935 C 498.05761,439.21453 496.93832,438.13721 495.5835,438.1631 z" />
  <g
     transform="translate(-112.854, -83.8994)"
     id="layer3"
     style="display: inline;">
    <path
       d="M 143.35781,237.99797 L 197.66001,607.25294 L 263.9087,584.44601 L 270.42496,557.29491 L 222.63903,193.47016 L 206.34836,191.29807 L 143.35781,237.99797 z"
       id="path3268"
       style="fill: url(#linearGradient3276) rgb(0, 0, 0); fill-opacity: 1; fill-rule: evenodd; stroke: none; stroke-width: 1px; stroke-linecap: butt; stroke-linejoin: miter; stroke-opacity: 1;" />
    <path
       d="M 709.18675,116.36104 L 724.39136,95.726199 L 775.43543,113.1029 L 891.35364,453.69631 L 846.0283,458.4649 L 825.39346,441.0882 L 709.18675,116.36104 z"
       id="path3278"
       style="fill: url(#linearGradient3286) rgb(0, 0, 0); fill-opacity: 1; fill-rule: evenodd; stroke: none; stroke-width: 1px; stroke-linecap: butt; stroke-linejoin: miter; stroke-opacity: 1;" />
    <path
       d="M 197.91769,607.1423 L 276.94122,566.33266 L 816.24873,450.62541 L 892.2358,453.47576 C 892.0589,454.89096 673.34982,500.10588 629.90553,510.59502 C 586.46124,521.08416 599.4963,522.5415 599.4963,522.5415 C 569.44908,526.48914 539.40187,532.83777 509.35465,544.26238 C 505.14957,537.89473 472.83043,545.50173 461.56871,548.60656 C 450.257,551.72517 271.75914,590.83754 197.91769,607.1423 z"
       id="path3288"
       style="fill: url(#linearGradient3296) rgb(0, 0, 0); fill-opacity: 1; fill-rule: evenodd; stroke: none; stroke-width: 1px; stroke-linecap: butt; stroke-linejoin: miter; stroke-opacity: 1;" />
  </g>
  <g
     transform="translate(-112.854, -83.8994)"
     id="layer4"
     style="display: inline;">
    <path
       d="M 206.34836,191.29807 L 259.56452,574.67161 C 252.7335,582.64113 453.68105,534.60839 501.50922,528.18136 C 549.33738,521.75432 560.39872,526.88568 560.39872,526.88568 C 560.39872,526.88568 575.39479,515.20901 619.42652,502.08282 C 663.45825,488.95663 851.552,455.28156 846.0283,450.8626 L 724.39136,92.468067 C 703.33819,106.93034 586.97171,115.52794 546.28014,123.96334 C 506.15964,132.28036 484.20395,144.92676 469.27583,163.16574 C 463.86501,149.83003 429.25928,146.97732 410.7008,149.04717 C 392.06744,151.12537 301.85405,176.94962 206.34836,191.29807 z"
       id="path3310"
       style="fill: url(#linearGradient3320) rgb(0, 0, 0); fill-opacity: 1; fill-rule: evenodd; stroke: none; stroke-width: 1px; stroke-linecap: butt; stroke-linejoin: miter; stroke-opacity: 1;" />
    <path
       d="M 470.96875,159.71875 L 468.75,160.25 L 558.9375,527.90625 L 561.15625,527.34375 L 470.96875,159.71875 z"
       id="path3332"
       style="fill: rgb(146, 146, 146); fill-opacity: 1; fill-rule: evenodd; stroke: rgb(184, 183, 184); stroke-width: 1; stroke-linecap: butt; stroke-linejoin: miter; stroke-miterlimit: 4; stroke-dasharray: none; stroke-opacity: 1;" />
  </g>
  <g
     transform="translate(-112.854, -83.8994)"
     id="layer5"
     style="display: inline;">
    <path
       d="M 704.82834,118.53981 C 683.36735,123.02149 659.88438,126.17929 636.26584,129.25856 L 732.65625,452.25 C 760.10458,446.46828 786.96619,440.61693 810.1875,434.5625 L 704.82834,118.53981 z M 626.70334,130.50856 C 602.23673,133.70113 577.91355,136.97746 555.89084,141.75856 L 648.28125,470.46875 C 671.81793,464.94884 697.65005,459.57026 723.3125,454.1875 L 626.70334,130.50856 z M 546.60959,143.88356 C 519.48041,150.54223 496.55837,159.96388 482.23459,174.94606 L 563.59375,498.59375 C 577.93867,489.25882 605.68183,480.79633 639.03125,472.6875 L 546.60959,143.88356 z M 431.14084,169.22731 C 423.77261,169.29791 415.79638,169.90372 407.39084,170.91481 L 472.3125,508.84375 C 505.45698,502.76004 532.85578,499.79947 546.6875,504.25 L 466.17209,176.25856 C 457.8691,171.07232 445.70007,169.0878 431.14084,169.22731 z M 397.98459,172.19606 C 373.96905,175.74602 347.30746,181.94555 321.89084,187.78981 L 382.03125,528.125 C 409.68741,521.92826 437.70237,515.53526 463,510.625 L 397.98459,172.19606 z M 312.57834,189.91481 C 282.34165,196.81361 254.71875,202.65961 236.76584,202.16481 L 289.96875,546.4375 C 313.96242,542.98106 342.92579,536.82423 372.75,530.1875 L 312.57834,189.91481 z"
       id="path3338"
       style="opacity: 0.337662; fill: rgb(146, 146, 146); fill-opacity: 1; fill-rule: evenodd; stroke: none; stroke-width: 1px; stroke-linecap: butt; stroke-linejoin: miter; stroke-opacity: 1;" />
  </g>
  <g
     transform="translate(-112.854, -83.8994)"
     id="layer6">
    <path
       d="M 329.07135,188.03995 C 350.45043,184.06129 369.73075,154.91665 392.52621,170.69848 C 414.13222,189.46533 405.71966,220.88384 407.51843,245.83011 C 405.50269,270.56143 408.89783,294.9673 416.07242,318.51499 C 424.74486,345.44863 430.42887,373.28983 429.5854,401.72727 C 429.87422,424.09632 438.67486,446.26454 433.10749,468.62099 C 422.04139,473.24306 423.17991,441.35116 417.36574,431.43256 C 410.73114,406.14533 407.875,380.07777 398.65265,355.45435 C 387.0656,312.73343 369.36754,271.19934 343.99144,234.76936 C 338.32049,219.42785 333.25513,203.85472 329.07135,188.03995 z M 578.86145,133.73775 C 599.86207,120.232 624.17377,136.78917 628.48027,159.01931 C 634.96717,184.39254 628.93092,211.11682 633.9861,236.84671 C 637.56981,267.00867 640.18351,297.51448 650.77796,326.25254 C 658.92024,357.6798 667.84424,388.97255 679.39941,419.28432 C 684.32182,429.71905 680.50782,442.18921 673.96073,425.88865 C 642.95617,384.47519 637.46464,331.30139 621.17898,283.52402 C 613.78939,256.155 604.70505,229.47574 595.06111,202.98341 C 592.30698,179.19259 579.12099,157.60468 578.86145,133.73775 z M 264.99475,460.63699 C 262.9941,483.94657 268.21499,507.16004 267.27646,530.24766 C 272.13987,560.86114 307.71566,552.88503 328.5983,546.36366 C 346.67882,545.27106 372.17524,526.67577 348.22498,512.1367 C 328.49167,496.74871 304.29571,487.85229 286.45707,469.78383 C 280.26766,465.03974 273.08587,460.52934 264.99475,460.63699 z"
       id="path3538"
       style="opacity: 0.206897; fill: rgb(255, 255, 255); fill-opacity: 1; fill-rule: evenodd; stroke: none; stroke-width: 1px; stroke-linecap: butt; stroke-linejoin: miter; stroke-opacity: 1; filter: url(#filter3587);" />
  </g>
</svg>
